<?xml version="1.0" encoding="UTF-8"?>
<svg xmlns="http://www.w3.org/2000/svg" viewBox="0 0 1080 1080">
  <g id="mark-sanduhr">
    <g id="fundament-unten">
      <rect style="fill:#b89a5a" x="386" y="559.29999" width="326.60001" height="17.4" rx="1.9" ry="1.9" />
      <rect style="fill:#b89a5a" x="403.60001" y="539.09998" width="291.29999" height="15.6" rx="1.9" ry="1.9" />
    </g>
    <g id="saeulenfundamente">
      <path style="fill:#b89a5a" d="m 444.3,534.5 h -30.1 l 3.3,-6.3 c 1,-1.9 2.9,-3 5,-3 h 14.3 c 2.3,0 4.4,1.4 5.3,3.6 z" />
      <path style="fill:#b89a5a" d="m 654.3,534.5 h 30.1 c 0,0 -3.3,-6.3 -3.3,-6.3 -1,-1.9 -2.9,-3 -5,-3 h -14.3 c -2.3,0 -4.4,1.4 -5.3,3.6 z" />
      <path style="fill:#b89a5a" d="m 414.1,230.4 h 30.1 c 0,0 -3.3,6.3 -3.3,6.3 -1,1.9 -2.9,3 -5,3 h -14.3 c -2.3,0 -4.4,-1.4 -5.3,-3.6 z" />
      <path style="fill:#b89a5a" d="m 684.5,230.4 h -30.1 l 3.3,6.3 c 1,1.9 2.9,3 5,3 H 677 c 2.3,0 4.4,-1.4 5.3,-3.6 z" />
    </g>
    <g id="saeulen-elemente">
      <rect style="fill:#b89a5a" x="422.39999" y="243" width="5.1999998" height="278.79999" />
      <rect style="fill:#b89a5a" x="432" y="243" width="4.4000001" height="278.79999" />
      <rect style="fill:#b89a5a" x="670.90002" y="243.10001" width="5.1999998" height="278.79999" transform="rotate(180,673.534,382.4306)" />
      <rect style="fill:#b89a5a" x="662.20001" y="243.10001" width="4.4000001" height="278.79999" transform="rotate(180,664.409,382.4306)" />
      <circle style="fill:#b89a5a" cx="425.10001" cy="388.79999" r="4.0999999" />
      <circle style="fill:#b89a5a" cx="434.20001" cy="388.79999" r="3.5999999" />
      <circle style="fill:#b89a5a" cx="673.70001" cy="388.79999" r="4.0999999" />
      <circle style="fill:#b89a5a" cx="664.59998" cy="388.79999" r="3.5999999" />
    </g>
    <g id="fundament-oben">
      <rect style="fill:#b89a5a" x="404" y="210.5" width="290.70001" height="15.3" rx="1.9" ry="1.9" />
      <rect style="fill:#b89a5a" x="386.20001" y="191" width="326.29999" height="14.9" rx="1.9" ry="1.9" />
    </g>
    <g id="fallender-sand">
      <path id="sandkorn-1" style="fill:#b89a5a" d="m 547.25,458.43 c 0.2,0.2 0.2,0.4 0.6,0.3 0.2,0 0.2,0 0.4,0 -0.3,0 1,0 1.2,-1.2 0.2,-1.2 0,-0.5 -0.1,-0.7 0,-0.2 -0.1,-0.3 -0.3,-0.5 -0.3,-0.3 -0.4,-0.3 -0.8,-0.3 -0.6,0 -1.1,0.5 -1.2,0.6 -0.3,0.6 -0.2,1.4 0.1,1.6 z" />
      <path id="sandkorn-2" style="fill:#b89a5a" d="m 550.5,455.9 c 0.2,0.2 0.2,0.4 0.6,0.3 0.2,0 0.2,0 0.4,0 -0.3,0 1,0 1.2,-1.2 0.2,-1.2 0,-0.5 -0.1,-0.7 0,-0.2 -0.1,-0.3 -0.3,-0.5 -0.3,-0.3 -0.4,-0.3 -0.8,-0.3 -0.6,0 -1.1,0.5 -1.2,0.6 -0.3,0.6 -0.2,1.4 0.1,1.6 z" />
      <path id="sandkorn-3" style="fill:#b89a5a" d="m 547.6,451.1 c 0.2,0.2 0.2,0.4 0.6,0.3 0.2,0 0.2,0 0.4,0 -0.3,0 1,0 1.2,-1.2 0.2,-1.2 0,-0.5 -0.1,-0.7 0,-0.2 -0.1,-0.3 -0.3,-0.5 -0.3,-0.3 -0.4,-0.3 -0.8,-0.3 -0.6,0 -1.1,0.5 -1.2,0.6 -0.3,0.6 -0.2,1.4 0.1,1.6 z" />
      <path id="sandkorn-4" style="fill:#b89a5a" d="m 550.5,447.1 c 0.2,0.2 0.2,0.4 0.6,0.3 0.2,0 0.2,0 0.4,0 -0.3,0 1,0 1.2,-1.2 0.2,-1.2 0,-0.5 -0.1,-0.7 0,-0.2 -0.1,-0.3 -0.3,-0.5 -0.3,-0.3 -0.4,-0.3 -0.8,-0.3 -0.6,0 -1.1,0.5 -1.2,0.6 -0.3,0.6 -0.2,1.4 0.1,1.6 z" />
      <path id="sandkorn-5" style="fill:#b89a5a" d="m 547.4,441.9 c 0.2,0.2 0.17,0.21 0.6,0.3 h 0.4 c -0.3,0 1.2,0.02 1.2,-1.2 7.7e-4,-0.38 0.01,-0.56 -0.08,-0.76 C 549.42,440.09 549.4,440 549.2,439.8 c -0.3,-0.3 -0.4,-0.3 -0.8,-0.3 -0.6,0 -1.1,0.5 -1.2,0.6 -0.3,0.6 -0.22,1.3 0.01,1.58 z" />
      <path id="sandkorn-6" style="fill:#b89a5a" d="m 550.3,437.4 c 0.2,0.2 0.2,0.4 0.6,0.3 0.2,0 0.2,0 0.4,0 -0.3,0 1,0 1.2,-1.2 0.2,-1.2 0,-0.5 -0.1,-0.7 0,-0.2 -0.1,-0.3 -0.3,-0.5 -0.3,-0.3 -0.4,-0.3 -0.8,-0.3 -0.6,0 -1.1,0.5 -1.2,0.6 -0.3,0.6 -0.2,1.4 0.1,1.6 z" />
      <path id="sandkorn-7" style="fill:#b89a5a" d="m 547.4,431.9 c 0.2,0.2 0.2,0.4 0.6,0.3 0.2,0 0.2,0 0.4,0 -0.3,0 1,0 1.2,-1.2 0.2,-1.2 0,-0.5 -0.1,-0.7 0,-0.2 -0.1,-0.3 -0.3,-0.5 -0.3,-0.3 -0.4,-0.3 -0.8,-0.3 -0.6,0 -1.1,0.5 -1.2,0.6 -0.3,0.6 -0.2,1.4 0.1,1.6 z" />
      <path id="sandkorn-8" style="fill:#b89a5a" d="m 549.2,426.7 c 0.2,0.2 0.2,0.4 0.6,0.3 0.2,0 0.2,0 0.4,0 -0.3,0 1,0 1.2,-1.2 0.2,-1.2 0,-0.5 -0.1,-0.7 0,-0.2 -0.1,-0.3 -0.3,-0.5 -0.3,-0.3 -0.4,-0.3 -0.8,-0.3 -0.6,0 -1.1,0.5 -1.2,0.6 -0.3,0.6 -0.2,1.4 0.1,1.6 z" />
      <path id="sandkorn-9" style="fill:#b89a5a" d="m 547.4,421.4 c 0.2,0.2 0.2,0.4 0.6,0.3 0.2,0 0.2,0 0.4,0 -0.3,0 1,0 1.2,-1.2 0.2,-1.2 0,-0.5 -0.1,-0.7 0,-0.2 -0.1,-0.3 -0.3,-0.5 -0.3,-0.3 -0.4,-0.3 -0.8,-0.3 -0.6,0 -1.1,0.5 -1.2,0.6 -0.3,0.6 -0.2,1.4 0.1,1.6 z" />
      <path id="sandkorn-10" style="fill:#b89a5a" d="m 549.2,416 c 0.2,0.2 0.2,0.4 0.6,0.3 0.2,0 0.2,0 0.4,0 -0.3,0 1,0 1.2,-1.2 0.2,-1.2 0,-0.5 -0.1,-0.7 0,-0.2 -0.1,-0.3 -0.3,-0.5 -0.3,-0.3 -0.4,-0.3 -0.8,-0.3 -0.6,0 -1.1,0.5 -1.2,0.6 -0.3,0.6 -0.2,1.4 0.1,1.6 z" />
      <path id="sandkorn-11" style="fill:#b89a5a" d="m 547.4,410.8 c 0.2,0.2 0.2,0.4 0.6,0.3 0.2,0 0.2,0 0.4,0 -0.3,0 1,0 1.2,-1.2 0.2,-1.2 0,-0.5 -0.1,-0.7 0,-0.2 -0.1,-0.3 -0.3,-0.5 -0.3,-0.3 -0.4,-0.3 -0.8,-0.3 -0.6,0 -1.1,0.5 -1.2,0.6 -0.3,0.6 -0.2,1.4 0.1,1.6 z" />
      <path id="sandkorn-12" style="fill:#b89a5a" d="m 549.2,405.9 c 0.2,0.2 0.2,0.4 0.6,0.3 0.2,0 0.2,0 0.4,0 -0.3,0 1,0 1.2,-1.2 0.2,-1.2 0,-0.5 -0.1,-0.7 0,-0.2 -0.1,-0.3 -0.3,-0.5 -0.3,-0.3 -0.4,-0.3 -0.8,-0.3 -0.6,0 -1.1,0.5 -1.2,0.6 -0.3,0.6 -0.2,1.4 0.1,1.6 z" />
      <path id="sandkorn-13" style="fill:#b89a5a" d="m 546.9,401 c 0.2,0.2 0.2,0.4 0.6,0.3 0.2,0 0.2,0 0.4,0 -0.3,0 1,0 1.2,-1.2 0.2,-1.2 0,-0.5 -0.1,-0.7 0,-0.2 -0.1,-0.3 -0.3,-0.5 -0.3,-0.3 -0.4,-0.3 -0.8,-0.3 -0.6,0 -1.1,0.5 -1.2,0.6 -0.3,0.6 -0.2,1.4 0.1,1.6 z" />
      <path id="sandkorn-14" style="fill:#b89a5a" d="m 549.2,396.7 c 0.2,0.2 0.2,0.4 0.6,0.3 0.2,0 0.2,0 0.4,0 -0.3,0 1,0 1.2,-1.2 0.2,-1.2 0,-0.5 -0.1,-0.7 0,-0.2 -0.1,-0.3 -0.3,-0.5 -0.3,-0.3 -0.4,-0.3 -0.8,-0.3 -0.6,0 -1.1,0.5 -1.2,0.6 -0.3,0.6 -0.2,1.4 0.1,1.6 z" />
      <path id="sandkorn-15" style="fill:#b89a5a" d="m 546.9,392.2 c 0.2,0.2 0.2,0.4 0.6,0.3 0.2,0 0.2,0 0.4,0 -0.3,0 1,0 1.2,-1.2 0.2,-1.2 0,-0.5 -0.1,-0.7 0,-0.2 -0.1,-0.3 -0.3,-0.5 -0.3,-0.3 -0.4,-0.3 -0.8,-0.3 -0.6,0 -1.1,0.5 -1.2,0.6 -0.3,0.6 -0.2,1.4 0.1,1.6 z" />
      <path id="sandkorn-16" style="fill:#b89a5a" d="m 549,387.7 c 0.2,0.2 0.2,0.4 0.6,0.3 0.2,0 0.2,0 0.4,0 -0.3,0 1,0 1.2,-1.2 0.2,-1.2 0,-0.5 -0.1,-0.7 0,-0.2 -0.1,-0.3 -0.3,-0.5 -0.3,-0.3 -0.4,-0.3 -0.8,-0.3 -0.6,0 -1.1,0.5 -1.2,0.6 -0.3,0.6 -0.2,1.4 0.1,1.6 z" />
      <path id="sandkorn-17" style="fill:#b89a5a" d="m 547.4,383.8 c 0.2,0.2 0.2,0.4 0.6,0.3 0.2,0 0.2,0 0.4,0 -0.3,0 1,0 1.2,-1.2 0.2,-1.2 0,-0.5 -0.1,-0.7 0,-0.2 -0.1,-0.3 -0.3,-0.5 -0.3,-0.3 -0.4,-0.3 -0.8,-0.3 -0.6,0 -1.1,0.5 -1.2,0.6 -0.3,0.6 -0.2,1.4 0.1,1.6 z" />
    </g>
    <path id="sandhaufen-unten" style="fill:#b89a5a" transform="matrix(1,0,0,1.0680066,0,-35.446397)" d="M 605.99,491.1 C 606.08,492.81 601.7,522.1 548.9,521.2 c -52.7,-0.9 -56.4,-30.3 -56.4,-30.3 -0.55,-2.64 5.3,-3.2 7.1,-3.9 3.69,-0.86 1.07,-0.69 6.2,-1.5 0,0 2.4,-0.5 6.9,-1.6 2.7,-0.6 4.9,-1.3 6.9,-2.1 1.6,-0.6 4.3,-1.4 5.2,-1.8 3,-0.9 5.1,-1.9 6.8,-2.9 1.65,-0.96 2.92,-1.46 4,-1.84 1.91,-0.66 4.95,-2.06 6.39,-3.47 1.26,-1.23 3.65,-4.15 5.01,-6.65 0.18,-0.33 0.8,-1 1.48,-1.08 0.89,-0.1 2.07,0.02 2.77,0.51 0.21,0.15 0.47,0.49 0.6,0.71 0.41,0.67 0.85,1.58 1.53,2.56 1.25,1.82 4.01,4.31 6,5.27 0.22,0.11 1.17,0.47 2.08,0.9 0.64,0.3 1.4,0.68 2.41,1.2 0.73,0.37 1.9,1 2.63,1.37 3.43,1.72 5.67,2.22 8.29,3.61 5.83,3.09 4.76,1.2 9.5,3.8 4.18,1.05 2.05,1.31 6.5,1.9 4.61,0.61 5.4,1.3 8.5,2 3.1,0.7 6.7,-0.13 6.7,2.96 0,0 -0.01,0.16 -0.01,0.24 z" />
    <path id="sandhaufen-oben" style="fill:#b89a5a" d="m 494.66,310.72 c -0.22,0.01 -0.34,0.18 -0.26,0.39 0.81,2.11 5.12,12.79 13.39,23.93 7.17,9.66 22.68,21.89 30.99,30.61 5.01,5.25 9.43,10.38 10.25,12.53 0.03,0.1 0.15,0.46 0.29,0.45 0.13,0.01 0.21,-0.21 0.29,-0.42 1.59,-4.2 5.27,-8.89 15.69,-18.03 3.69,-3.24 9.9,-8.23 13.47,-11.6 17.33,-16.36 25.13,-34.51 26.2,-37.15 0.07,-0.18 -0.03,-0.31 -0.22,-0.3 l -3.46,0.29 c -1.6,0.13 -4.15,0.63 -5.69,1.09 -2.09,0.62 -4.12,1.2 -6.08,1.73 -0.01,0.08 -0.4,1.24 -5.94,14.3 -11.36,26.77 -1.35,-3.45 1.96,-13.28 -48.07,11.89 -57.64,-5.47 -90.87,-4.54 z" />
    <path id="spiegelung" style="fill:#b89a5a" d="m 587.61,322.88 c 5.83,-24.62 5.39,-36.34 1.86,-45.96 -4.5,-12.24 -21.12,-23.69 -21.12,-23.69 0,0 7.25,1.6 17.15,10.92 9.73,9.16 9.69,23.6 9.46,29.65 -0.79,20.54 -7.34,29.08 -7.34,29.08 z" />
    <path id="glas" style="fill:#b89a5a" d="m 608,505.5 c -11.7,16.7 -33.66,22.85 -53.96,23.95 -1.49,0.1 -3.3,0.07 -4.51,0.07 0,0 -0.02,-3.32 -0.12,-3.32 1.2,0 2.4,0.02 3.59,-0.05 11.2,-0.5 22.51,-2.15 32.81,-6.65 10.3,-4.5 19.5,-12.2 24,-22.5 3.8,-8.6 4.2,-18.4 2.5,-27.6 -4.5,-24.7 -22.6,-44.6 -41.4,-61.3 -8.2,-7.3 -17.5,-16.1 -16.4,-27 1,-9.2 9.1,-15.7 16.3,-21.5 13.3,-10.9 25.6,-23.6 33.2,-39 5.9,-12.2 8.6,-26.2 6.2,-39.6 -1.2,-6.4 -3.5,-12.2 -7.8,-17.2 -4,-4.8 -9.1,-8.5 -14.7,-11.2 -1.2,-0.6 -2.4,-1.1 -3.6,-1.6 -9.6,-3.8 -20,-5 -30.3,-5.3 h -4.1 -0.6 -4.1 c -10.3,0.3 -20.7,1.5 -30.3,5.3 -1.2,0.5 -2.4,1 -3.6,1.6 -5.5,2.7 -10.7,6.5 -14.7,11.2 -4.2,5 -6.6,10.8 -7.8,17.2 -2.5,13.4 0.2,27.5 6.2,39.6 7.5,15.5 19.8,28.1 33.2,39 7.1,5.9 15.3,12.4 16.3,21.5 1.2,10.9 -8.2,19.8 -16.4,27 -18.8,16.7 -36.9,36.5 -41.4,61.3 -1.7,9.2 -1.3,19 2.5,27.6 4.6,10.2 13.8,18 24,22.5 10.3,4.5 21.6,6.1 32.8,6.6 l 2.97,0.09 0.77,0.01 0.03,3.31 c -0.54,0.01 -3.26,-0.11 -4.87,-0.21 -20.3,-1.1 -42.3,-7.2 -53.9,-23.9 -10.8,-15.5 -10,-36.9 -2.2,-54.1 7.8,-17.2 21.5,-31 35.7,-43.5 4.6,-4 9.2,-8 12.6,-13.1 3.3,-5.1 5.2,-11.5 3.4,-17.3 -2,-6.3 -7.6,-10.7 -12.8,-14.8 -14.5,-11.4 -27.8,-25 -35.7,-41.6 -1.5,-3.2 -2.8,-6.5 -3.9,-9.9 -4,-12.9 -4.5,-27.2 0.3,-40 2.1,-5.5 6.3,-10.7 10.7,-14.6 4.7,-4.1 10.1,-7.2 15.9,-9.3 10.3,-3.8 21.4,-4.8 32.3,-4.9 h 1.9 0.6 1.9 c 11,0 22,1 32.3,4.9 5.8,2.1 11.3,5.2 15.9,9.3 4.4,3.9 8.6,9.1 10.7,14.6 4.8,12.8 4.3,27 0.3,40 -1,3.4 -2.3,6.7 -3.9,9.9 -7.9,16.6 -21.2,30.2 -35.7,41.6 -5.2,4.1 -10.9,8.4 -12.8,14.8 -1.8,5.8 0,12.2 3.4,17.3 3.3,5.1 8,9.1 12.6,13.1 14.2,12.5 27.9,26.2 35.7,43.5 7.8,17.2 8.75,38.78 -2.05,54.28 z" />
  </g>
  <g id="mark-lorbeerkranz" transform="translate(4.1213203,-9.4852809)">
    <path id="kranz-1" style="fill:#b89a5a" d="m 713.7,835.4 c -1.2,12 -10.1,21.2 -20.6,26.1 1.3,-6.5 5.4,-12 9.6,-17 0,-0.2 -0.3,-0.2 -0.5,0 -0.4,0.2 -2.1,2 -2.5,2.5 -4.1,4.5 -7.1,10.2 -8,16.2 14.8,-6.4 27.2,-11.2 43.5,-11.5 -10,12.2 -27.7,19.2 -43,14.1 -7.2,3.6 -14.9,6.2 -22.6,8.4 4.3,0 6.4,0.1 10.7,0.2 5.2,0.5 10.3,1.6 15,3.9 -11.2,6.6 -27.9,8.4 -38.9,2.3 -0.9,-0.5 -2.8,-2.4 -3.6,-2.5 -7.6,1 -15.3,2.5 -23,2.8 l 7.5,1.5 c 6.2,1.8 12.2,4.7 17,8.9 0.16,0.15 -0.2,0.36 -0.73,0.54 -7.5,2.5 -18.77,2.06 -26.17,-0.34 -5.6,-1.8 -10.2,-5 -13.6,-9.6 -8.7,0.3 -13.1,0.4 -21.8,0.5 0,0.4 0.5,0.4 0.9,0.5 1.9,0.5 3.8,0.8 5.6,1.4 7.2,2.3 14.2,7 19.1,12.4 -0.3,0.2 -1,0.4 -1.4,0.5 -12.5,2.2 -28.4,-1.1 -37.1,-9.9 -1.3,-1.3 -2.1,-3.2 -3.6,-4.5 -9.9,0.3 -21.5,1 -30.5,5.1 -1.2,0.6 -4.8,3.2 -5.3,3.3 -0.8,0.2 -2,0 -2.8,0 -0.2,-0.2 1.2,-3.5 1.6,-3.9 0.7,-0.7 4.2,-2.2 5.4,-2.7 9.8,-4.1 22.1,-5.2 32.6,-5.6 7.5,-13.3 24.4,-17.6 38.7,-17 0.4,0.3 -1,2.2 -1.2,2.6 -3.8,5.9 -12.5,10.5 -19.4,12.3 -3.8,0.8 -5.7,1.1 -9.6,1.9 10.2,0 20.4,-0.3 30.6,-0.7 1.4,-3.2 3.3,-6.3 5.9,-8.6 7.5,-6.7 18.9,-10.2 29,-10.1 0.44,0.02 0.85,0.01 1.11,0.12 -6.1,11.7 -19.31,17.18 -31.81,17.88 -0.2,-0.2 1.4,-2.3 1.7,-2.6 5.1,-5.5 13.2,-9.3 20.3,-11.6 0,-0.6 -0.6,-0.1 -0.9,0 -8.4,1.7 -18.7,6.9 -22.2,14.8 7.9,-0.4 11.8,-0.7 19.7,-1.2 5.9,-0.8 8.8,-1.2 14.6,-2.1 0.5,-0.2 1.5,-3.9 2,-4.8 5.2,-10.2 17.4,-16.6 28.6,-18.6 0.4,0 1.8,-0.5 1.7,0.2 -0.2,1 -1.2,3.2 -1.7,4.1 -5.1,9.6 -15.8,15 -26.2,17.6 -0.8,-0.6 4.6,-6.8 5.4,-7.6 3.4,-3.4 7.7,-6.5 12.1,-8.5 0,-0.6 -1.1,0 -1.4,0 -5.3,2.1 -11.9,7.2 -15,11.9 -0.2,0.3 -3.2,5.2 -2,5.1 11.6,-2.7 22.1,-5.8 33.2,-10 0.8,-10.5 7.5,-19.3 16.1,-24.7 1.1,-0.7 7.2,-4.55 7.9,-4.05 z m -11.4,18 c 0.2,0.2 2,-1.7 2.3,-2 2.4,-2.7 4.5,-6.3 5.5,-9.7 -2.4,4 -4.8,8 -7.8,11.7 z M 604,865.5 c -7,0.8 -15,3.7 -20.4,8.4 -0.6,0.5 -4.7,4.5 -4.1,5.1 2.3,-1.8 4.3,-3.9 6.7,-5.6 1.5,-1.1 3.2,-1.9 4.8,-3 5.2,-2 7.8,-2.9 13,-5 z m 122.2,-11.6 c -5.3,0.6 -10.5,1.7 -15.4,3.8 -1.8,1 -2.8,1.4 -4.6,2.4 3,-1 4.5,-1.6 7.4,-2.6 5,-1.4 7.5,-2.1 12.6,-3.6 z m -10.6,8.8 c -6.7,1.7 -13.3,2 -20.1,1.4 0.6,0.7 1.9,0.8 2.8,1 4.8,0.7 9.8,0 14.5,-1.2 1.1,-0.5 1.7,-0.7 2.8,-1.2 z m -40.7,19 c -4.8,0 -9.6,-0.9 -14,-2.5 -1.6,-0.5 -3,-1.6 -4.7,-1.8 4.4,3.8 11.8,4.9 17.6,4.7 0.3,0 1.1,0 1,-0.4 z m 10.5,-4.6 c -5.9,-0.9 -12.1,-1.7 -18,-0.2 l 17,0.5 c 0.4,-0.1 0.6,-0.2 0.9,-0.3 z m -91.2,15.6 c -4.3,-1.7 -8.2,-4.2 -11.6,-7.1 -1.2,-1 -2.1,-2.5 -3.5,-3.1 -0.4,0.5 1.9,2.9 2.3,3.4 2.7,2.8 8.1,5.9 11.9,7 0.3,0 1,0.4 0.9,-0.2 z m 37.7,-2.8 c -2.5,-1 -3.7,-1.5 -6.1,-2.5 -3.5,-2.2 -5.2,-3.3 -8.7,-5.6 -0.3,0.4 2.6,3 3.1,3.3 2.4,1.9 7.7,4.5 10.8,5 0.3,0 1,0.3 0.9,-0.2 z m -23.1,2.7 c -5.5,-4.6 -12.6,-7 -19.8,-7.8 4.3,1.5 6.5,2.2 10.9,3.7 3.6,1.7 5.3,2.5 8.9,4.2 z m 36.7,-4.3 c -5.2,-3.2 -11.8,-5 -18,-5.1 7.2,2.1 10.8,3.1 18,5.1 z" />
    <path id="kranz-2" style="fill:#b89a5a" d="m 481.9,881.6 c -3.5,5.9 -10.8,9.6 -17.7,10.9 -6.5,1.2 -15.7,1.3 -21.9,-0.9 -0.36,-0.14 -0.92,-0.34 -0.7,-0.5 5.4,-4.5 11.6,-7.5 18.5,-9.2 2.6,-0.5 3.8,-0.7 6.4,-1.2 -7,-0.6 -14,-1.6 -20.8,-2.9 -10.8,9.7 -33.29,6.2 -40.42,1.59 -0.78,-0.48 -1.16,-0.76 -1.68,-1.29 4.9,-2.4 10.6,-3.6 16.1,-3.9 3.1,-0.2 5.6,0 8.7,0.2 0.4,0 1.1,0.3 1.1,-0.2 -7.9,-2.3 -15.7,-4.8 -22.9,-8.4 -15.2,6.2 -32.9,-2.9 -43,-14.1 -0.23,-0.35 0.4,-0.3 0.8,-0.3 15,0 28.3,5.5 42.7,11.8 -1.2,-5.9 -3.6,-11.4 -7.7,-15.8 -0.4,-0.5 -2.2,-2.3 -2.5,-2.5 -0.1,0 -0.5,-0.1 -0.5,0 4.3,4.9 7.9,10.3 9.4,16.6 -10.5,-4.8 -19.5,-14 -20.7,-25.9 0,-0.7 6.6,2.8 7.1,3.2 7.3,4.3 14.4,11.8 16.3,20.1 0.4,1.8 0.4,3.6 0.9,5.3 11.1,4.3 21.6,7.8 33,9.9 0.2,0 0.7,0.6 0.5,-0.2 -0.5,-1.9 -2.2,-4.9 -3.5,-6.5 -3,-4 -10,-8.9 -14.8,-10.5 -0.3,0 -0.9,-0.5 -0.9,0 5.2,2.6 10.9,6.3 14.6,10.8 0.5,0.6 3.8,5.3 3.4,5.6 -11.8,-2.9 -24.2,-9.7 -27.9,-22.1 0.7,-0.4 7.7,1.8 9,2.3 10,3.4 20,10.1 22.6,21 10.8,2 22.1,3.1 33.1,3.5 0.4,-0.4 -1.5,-3.2 -1.9,-3.7 -4,-5.2 -12.3,-9.6 -18.7,-11.1 -0.3,0 -1,-0.4 -1,0.1 7,2.4 15.1,6.5 19.6,12.4 0.2,0.3 1.3,1.7 1.1,1.9 -12,-1.4 -25,-6.5 -30.3,-18.3 0.6,-0.6 8,0.8 9.3,1.1 8,1.7 16.6,5.3 21.6,11.9 1.3,1.8 2.2,3.8 3.2,5.7 10.1,0.4 20.2,0.6 30.3,0.7 -4.8,-1 -7.2,-1.5 -12,-2.6 -6.3,-2 -12.9,-5.5 -16.9,-10.6 -0.4,-0.5 -2.1,-2.8 -2.2,-3.3 -0.2,-0.5 0.2,-0.4 0.5,-0.4 12.2,-0.7 26.8,2.8 35,11.9 1.3,1.5 2.1,3.5 3.4,5 3.7,0.7 7.6,0.5 11.4,0.9 4.9,0.5 9.7,1.7 14.6,2.4 0.1,0.7 0,0.4 -0.4,0.6 -0.7,0.3 -4.6,1.8 -4.9,1.9 -1.6,0.2 -7.4,-1.2 -9.6,-1.5 -3.5,-0.3 -7,-0.4 -10.5,-0.5 -3.5,6.1 -9.4,9.9 -16.3,12.1 -8.1,2.6 -17.2,3.6 -25.6,1.8 4.4,-5.2 10.4,-9 16.9,-11.6 l 8.5,-2.5 c -8.6,-0.3 -12.9,-0.5 -21.5,-1 z m -85.5,-28.2 c -3,-4.4 -4.6,-6.7 -7.5,-11.1 0.9,3.3 3.1,6.9 5.5,9.4 0.5,0.6 1.3,1.4 2,1.7 z m 119.8,25.5 c 0.5,-0.5 -3.1,-4.2 -3.6,-4.7 -5.7,-5.3 -13.8,-7.9 -21.4,-9.2 0,0.4 0.5,0.4 0.8,0.5 6.9,2.2 12.8,3.9 18.6,8.5 1.7,1.3 3,3 4.6,4.3 0.3,0.3 0.5,0.7 1,0.6 z M 392,859.5 c -6.3,-3 -12.8,-5 -19.8,-5.6 4.6,1.3 6.8,1.9 11.4,3.1 2.5,0.6 5,1.9 7.3,2.6 0.3,0 1.1,0.4 1,-0.1 z m 11,4.6 c -5.6,0.5 -10.8,0.3 -16.5,-0.6 -0.8,-0.1 -1.5,-0.5 -2.3,-0.6 -0.3,0 -1.1,-0.3 -1.1,0.2 5.7,1.9 12,3.1 18,1.9 0.5,-0.1 2,-0.1 1.9,-0.9 z m 39.2,13.3 c -3.4,1.2 -5.2,1.8 -8.6,3 -4,0.7 -6,1 -10.1,1.6 6.3,0.2 13.9,-0.5 18.7,-4.6 z m -11.5,-0.2 c 0,-0.5 -0.5,-0.6 -1,-0.7 -3.5,-0.7 -8.9,-0.4 -12.4,0 -2.1,0.4 -3.1,0.7 -5.2,1.1 6.2,-0.4 12.4,-1 18.6,-0.4 z m 86.3,5.5 c -0.6,-0.1 -0.8,0.1 -1.2,0.4 -2.2,1.4 -4.1,4.3 -6.5,5.6 -3.6,1.9 -5.4,2.9 -9,4.7 6.6,-1.7 12.9,-5.2 16.8,-10.7 z m -37.8,-1.3 c -1.1,-0.2 -1.3,0.8 -1.9,1.2 -1.5,1.1 -3.2,2.1 -4.7,3.3 -3.8,1.7 -5.7,2.6 -9.5,4.3 4.9,-0.8 10.6,-3.1 14.1,-6.4 0.3,-0.2 2.2,-2.1 1.9,-2.3 z m -10.7,1.7 c -6.4,0.2 -13.4,2 -18.7,5.6 7.5,-2.2 11.3,-3.3 18.7,-5.6 z m 37.5,1.8 c -6.8,0.6 -13.9,3.4 -19.2,7.5 3.7,-1.6 5.5,-2.5 9.2,-4.1 4,-1.3 6,-2 10,-3.4 z" />
    <path id="kranz-3" style="fill:#b89a5a" d="m 705.9,855.5 c 5.7,-4.1 8.5,-6.2 14.1,-10.3 -0.9,-6.8 1.2,-14.3 5.2,-19.9 0.7,-1 3.35,-4.28 4.16,-4.85 0.01,0 0.64,-0.6 0.84,-0.25 1.8,6 0.7,12.7 -2.6,18 h 0.5 c 3.3,-3.3 5.3,-7.5 8,-11.3 4.9,-7 10.8,-13.1 18.4,-17.2 -1.3,13.4 -9.6,25.9 -21.4,32 -3.5,1.9 -7.3,2.3 -10.4,3.7 -1.2,0.5 -4.6,4.4 -6.2,5.5 -3.1,2.2 -7,3.1 -10.5,4.5 z m 24.4,-14.7 c 7.6,-3.1 13.4,-9.5 17,-16.6 0.7,-1.3 1.4,-2.8 1.7,-4.2 -3.5,5.8 -7.2,11.7 -12.6,16.1 -2.5,1.8 -3.7,2.8 -6.2,4.6 z m -8,2.7 c -0.3,-3.1 0.7,-6.3 1.4,-9.3 1,-2.7 1.5,-4 2.5,-6.7 -2.6,3.6 -4.7,9.5 -4.5,13.9 0,0.4 0,2 0.6,2.1 z" />
    <path id="kranz-4" style="fill:#b89a5a" d="m 368.09,820.86 c 0,0 0.48,-1.76 0.96,-1.25 6.8,6.5 10.56,16.19 9.26,25.59 4.6,3.7 9.3,7.4 14.5,10.3 -3.6,-1.2 -5.3,-1.8 -8.9,-3 -2.5,-1.3 -6.1,-6 -8.1,-6.9 -1.6,-0.7 -4.2,-1.1 -6.1,-1.7 -14.1,-4.9 -23.5,-19.8 -25.7,-34 7.6,3.7 13.5,10 18.4,16.7 2.6,3.7 4.6,7.8 7.8,11.1 -0.8,-2.5 -1.22,-3.64 -1.98,-6.08 -0.64,-2.37 -0.84,-4.74 -0.84,-5.55 0,-1.58 0.3,-3 0.53,-4.54 z M 367.6,840.2 c -8,-4.7 -13.5,-12.3 -17.9,-20 0.3,1.3 1,2.8 1.6,4 3,6 8.9,13.1 15.2,16 0.3,0.1 1.1,0.7 1.1,0 z m 9.1,3.6 c 0.3,-5.4 -0.8,-11.2 -4,-15.7 0.6,2.1 1.6,4 2.2,6.1 0.8,3 0.9,5.7 1.4,8.7 0,0.3 0,0.9 0.4,0.9 z" />
    <path id="kranz-5" style="fill:#b89a5a" d="m 549.1,887.7 c 0.8,-0.8 4.3,-1.9 5.2,-1.7 2.3,0.5 3,3 3.9,4.7 -3.3,1.9 -5.8,-2.8 -9.1,-3 z" />
  </g>
  <g id="mark-name">
    <path id="letter-a" style="fill:#b89a5a" d="m 586.92,612.35 66.6,159.3 h -19.12 l -51.98,-137.93 z m -48.38,144.22 q -1.57,4.5 -0.45,7.65 1.12,3.15 3.6,4.95 2.7,1.57 5.4,1.57 h 2.02 v 2.25 h -45.23 v -2.25 q 0,0 1.12,0 0.9,0 0.9,0 5.17,0 10.57,-3.15 5.62,-3.38 9.22,-11.03 z m 48.38,-144.22 2.02,15.75 -56.48,144.22 h -13.5 l 57.6,-136.8 q 0,0 1.12,-2.7 1.35,-2.92 2.92,-6.97 1.8,-4.05 2.92,-7.88 1.35,-3.83 1.35,-5.62 z m 31.73,99.22 v 6.75 h -70.42 v -6.75 z m 10.12,45 h 18.45 q 3.38,7.65 9,11.03 5.62,3.15 10.8,3.15 0,0 0.9,0 0.9,0 0.9,0 v 2.25 h -50.62 v -2.25 h 2.02 q 4.28,0 7.65,-3.6 3.38,-3.83 0.9,-10.57 z" />
    <path id="letter-r1" style="fill:#b89a5a" transform="scale(1.0039946,0.9960213)" d="m 374.8,616.95 h 31.85 q 10.17,0 18.3,2.94 8.36,2.94 14.01,8.58 5.65,5.42 8.58,13.33 3.16,7.68 3.16,17.62 0,10.84 -5.2,20.78 -4.97,9.94 -13.78,16.26 -8.58,6.1 -19.43,6.1 3.84,1.58 8.36,6.55 4.52,4.74 7.91,9.26 0,0 2.94,4.52 3.16,4.29 7.68,10.62 4.74,6.33 9.49,12.42 4.74,6.1 8.13,9.71 4.52,4.97 9.04,8.81 4.52,3.84 9.71,6.1 5.42,2.26 11.97,2.26 v 2.26 h -12.42 q -10.39,0 -18.07,-3.16 -7.45,-3.16 -12.65,-7.68 -5.2,-4.74 -8.81,-9.04 -0.68,-0.9 -3.84,-5.2 -2.94,-4.29 -7.23,-10.17 -4.07,-6.1 -8.13,-11.97 -4.07,-5.87 -7,-9.94 -2.94,-4.29 -3.39,-4.97 -4.29,-5.65 -9.49,-10.39 -5.2,-4.74 -11.29,-4.74 v -2.26 q 0,0 3.39,0.23 3.61,0 8.58,-0.23 5.87,-0.23 12.88,-1.81 7,-1.58 13.1,-6.55 6.1,-4.97 9.26,-15.14 0.68,-2.48 1.13,-6.1 0.45,-3.84 0.23,-7.45 -0.23,-15.36 -7.91,-24.4 -7.45,-9.26 -20.11,-9.94 -6.33,-0.45 -13.1,-0.23 -6.55,0 -11.07,0 -4.52,0 -4.52,0 0,-0.23 -0.68,-1.81 -0.45,-1.81 -1.13,-3.39 z m 2.94,0 v 158.13 h -14.68 v -158.13 z m -14.01,141.64 v 16.49 h -18.07 v -2.26 q 0,0 1.36,0 1.58,0 1.58,0 5.87,0 9.94,-4.07 4.29,-4.29 4.52,-10.17 z m 0,-125.15 h -0.68 q -0.23,-5.87 -4.52,-9.94 -4.07,-4.29 -9.94,-4.29 0,0 -1.58,0 -1.36,0 -1.36,0 v -2.26 h 18.07 z m 13.33,125.15 h 0.68 q 0,5.87 4.29,10.17 4.29,4.07 10.17,4.07 0,0 1.36,0 1.36,0 1.36,0 v 2.26 h -17.85 z" />
    <path id="letter-r2" style="fill:#b89a5a" d="m 845,611.6 h 30.99 q 9.89,0 17.8,3.04 8.13,3.04 13.63,8.88 5.5,5.61 8.35,13.79 3.08,7.94 3.08,18.23 0,11.22 -5.06,21.5 -4.84,10.28 -13.41,16.82 -8.35,6.31 -18.9,6.31 3.74,1.64 8.13,6.78 4.4,4.91 7.69,9.58 0,0 2.86,4.67 3.08,4.44 7.47,10.98 4.62,6.54 9.23,12.85 4.62,6.31 7.91,10.05 4.4,5.14 8.79,9.11 4.4,3.97 9.45,6.31 5.28,2.34 11.65,2.34 v 2.34 h -12.09 q -10.11,0 -17.59,-3.27 -7.25,-3.27 -12.31,-7.94 -5.06,-4.91 -8.57,-9.35 -0.66,-0.93 -3.74,-5.37 -2.86,-4.44 -7.03,-10.51 -3.96,-6.31 -7.91,-12.38 -3.96,-6.08 -6.81,-10.28 -2.86,-4.44 -3.3,-5.14 -4.18,-5.84 -9.23,-10.75 -5.06,-4.91 -10.99,-4.91 v -2.34 q 0,0 3.3,0.23 3.52,0 8.35,-0.23 5.72,-0.23 12.53,-1.87 6.81,-1.64 12.75,-6.78 5.93,-5.14 9.01,-15.66 0.66,-2.57 1.1,-6.31 0.44,-3.97 0.22,-7.71 -0.22,-15.89 -7.69,-25.24 -7.25,-9.58 -19.56,-10.28 -6.15,-0.47 -12.75,-0.23 -6.37,0 -10.77,0 -4.4,0 -4.4,0 0,-0.23 -0.66,-1.87 -0.44,-1.87 -1.1,-3.5 z m 2.86,0 V 775.17 H 833.57 V 611.6 Z m -13.63,146.51 v 17.06 H 816.65 v -2.34 q 0,0 1.32,0 1.54,0 1.54,0 5.72,0 9.67,-4.21 4.18,-4.44 4.4,-10.51 z m 0,-129.45 h -0.66 q -0.22,-6.08 -4.4,-10.28 -3.96,-4.44 -9.67,-4.44 0,0 -1.54,0 -1.32,0 -1.32,0 v -2.34 h 17.59 z m 12.97,129.45 h 0.66 q 0,6.08 4.18,10.51 4.18,4.21 9.89,4.21 0,0 1.32,0 1.32,0 1.32,0 v 2.34 h -17.37 z" />
    <path id="letter-c" style="fill:#b89a5a" transform="scale(1.0039946,0.9960213)" d="m 321.99,709.39 -2.71,35.47 q -5.87,9.71 -14.91,17.39 -8.81,7.45 -21.01,11.97 -11.97,4.29 -27.56,4.29 -23.49,-0.23 -41.79,-10.39 -18.3,-10.17 -28.69,-28.46 -10.17,-18.52 -10.17,-43.6 0,-24.62 10.17,-42.92 10.17,-18.52 28.46,-28.69 18.52,-10.39 43.37,-10.39 16.72,0 30.04,4.52 13.55,4.29 23.49,10.84 l 4.52,31.85 h -2.03 q -4.97,-19.88 -20.33,-30.04 -15.36,-10.39 -35.69,-10.39 -19.88,0 -34.56,9.49 -14.46,9.26 -22.59,26.2 -7.91,16.72 -7.91,39.31 0,22.59 7.91,39.53 8.13,16.94 22.36,26.43 14.46,9.49 33.43,9.94 16.04,0 29.59,-5.87 13.78,-6.1 23.04,-19.65 9.26,-13.78 11.75,-36.82 z" />
    <path id="letter-v" style="fill:#b89a5a" d="m 715.19,772.17 -69.75,-159.3 h 19.12 l 55.12,137.93 z m 0,0 -2.02,-15.75 59.85,-144.22 h 13.5 l -60.98,136.8 q 0,0 -1.35,2.92 -1.12,2.7 -2.92,6.75 -1.57,4.05 -2.92,7.88 -1.12,3.83 -1.12,5.62 z m 51.52,-144.45 q 2.48,-6.75 -0.9,-10.35 -3.38,-3.6 -7.65,-3.6 h -2.02 v -2.25 h 45.23 v 2.25 q 0,0 -1.12,0 -0.9,0 -0.9,0 -4.95,0 -10.57,3.38 -5.62,3.15 -9.22,10.8 z m -96.08,0 -18.68,0.23 q -3.38,-7.65 -9,-10.8 -5.62,-3.38 -10.8,-3.38 0,0 -0.9,0 -0.9,0 -0.9,0 v -2.25 h 50.62 v 2.25 h -2.02 q -4.28,0 -7.65,3.6 -3.15,3.6 -0.68,10.35 z" />
  </g>
</svg>
